<svg width="41" height="40" viewBox="0 0 41 40" fill="none" xmlns="http://www.w3.org/2000/svg">
<rect x="0.833008" y="0.5" width="39" height="39" rx="11.5" fill="#FAFAFF"/>
<rect x="0.833008" y="0.5" width="39" height="39" rx="11.5" stroke="#AFAFB3"/>
<path d="M20.333 9C20.8853 9 21.333 9.44772 21.333 10V12C21.333 12.5523 20.8853 13 20.333 13C19.7807 13 19.333 12.5523 19.333 12V10C19.333 9.44772 19.7807 9 20.333 9Z" fill="#1A1A1A"/>
<path d="M20.333 27C20.8853 27 21.333 27.4477 21.333 28V30C21.333 30.5523 20.8853 31 20.333 31C19.7807 31 19.333 30.5523 19.333 30V28C19.333 27.4477 19.7807 27 20.333 27Z" fill="#1A1A1A"/>
<path d="M9.33301 20C9.33301 19.4477 9.78073 19 10.333 19H12.333C12.8853 19 13.333 19.4477 13.333 20C13.333 20.5523 12.8853 21 12.333 21H10.333C9.78073 21 9.33301 20.5523 9.33301 20Z" fill="#1A1A1A"/>
<path d="M27.333 20C27.333 19.4477 27.7807 19 28.333 19H30.333C30.8853 19 31.333 19.4477 31.333 20C31.333 20.5523 30.8853 21 30.333 21H28.333C27.7807 21 27.333 20.5523 27.333 20Z" fill="#1A1A1A"/>
<path d="M15.38 24.9529C15.7706 25.3435 15.7706 25.9766 15.38 26.3671L13.97 27.7771C13.5795 28.1677 12.9464 28.1677 12.5558 27.7771C12.1653 27.3866 12.1653 26.7535 12.5558 26.3629L13.9658 24.9529C14.3564 24.5624 14.9895 24.5624 15.38 24.9529Z" fill="#1A1A1A"/>
<path d="M28.11 12.223C28.5006 12.6135 28.5006 13.2466 28.11 13.6372L26.7 15.0472C26.3095 15.4377 25.6764 15.4377 25.2858 15.0472C24.8953 14.6566 24.8953 14.0235 25.2858 13.633L26.6958 12.223C27.0864 11.8324 27.7195 11.8324 28.11 12.223Z" fill="#1A1A1A"/>
<path d="M25.2858 24.9529C25.6764 24.5624 26.3095 24.5624 26.7 24.9529L28.11 26.3629C28.5006 26.7535 28.5006 27.3866 28.11 27.7771C27.7195 28.1677 27.0864 28.1677 26.6958 27.7771L25.2858 26.3671C24.8953 25.9766 24.8953 25.3435 25.2858 24.9529Z" fill="#1A1A1A"/>
<path d="M12.5558 12.223C12.9464 11.8324 13.5795 11.8324 13.97 12.223L15.38 13.633C15.7706 14.0235 15.7706 14.6566 15.38 15.0472C14.9895 15.4377 14.3564 15.4377 13.9658 15.0472L12.5558 13.6372C12.1653 13.2466 12.1653 12.6135 12.5558 12.223Z" fill="#1A1A1A"/>
<path d="M20.333 15C17.5716 15 15.333 17.2386 15.333 20C15.333 22.7614 17.5716 25 20.333 25C23.0944 25 25.333 22.7614 25.333 20C25.333 17.2386 23.0944 15 20.333 15Z" fill="#1A1A1A"/>
</svg>
