<svg width="41" height="40" viewBox="0 0 41 40" fill="none" xmlns="http://www.w3.org/2000/svg">
<rect x="1.16675" y="0.5" width="39" height="39" rx="11.5" fill="#FAFAFF"/>
<rect x="1.16675" y="0.5" width="39" height="39" rx="11.5" stroke="#AFAFB3"/>
<path d="M27.6498 19.7253C27.6262 19.6232 27.5775 19.5285 27.5081 19.4498C27.4387 19.371 27.3508 19.3107 27.2522 19.274L22.671 18.5642L23.8322 11.7619C23.8589 11.6275 23.8416 11.4881 23.7829 11.3642C23.7243 11.2403 23.6272 11.1383 23.5061 11.0732C23.3837 11.0085 23.2433 10.9858 23.1067 11.0087C22.97 11.0316 22.8448 11.0988 22.7505 11.1999L13.8427 20.6989C13.7697 20.7743 13.7169 20.8667 13.6891 20.9676C13.6613 21.0686 13.6594 21.1749 13.6836 21.2768C13.7085 21.3783 13.7577 21.4723 13.8269 21.5508C13.8961 21.6294 13.9834 21.6902 14.0813 21.728L18.6625 22.4378L17.5013 29.2401C17.4746 29.3745 17.4918 29.5139 17.5505 29.6378C17.6092 29.7617 17.7062 29.8637 17.8274 29.9288C17.9187 29.9746 18.0194 29.999 18.1216 30C18.2081 30.0004 18.2936 29.983 18.373 29.9489C18.4524 29.9149 18.5239 29.8649 18.5829 29.8021L27.4908 20.3031C27.5638 20.2277 27.6166 20.1353 27.6444 20.0344C27.6722 19.9334 27.674 19.8271 27.6498 19.7253Z" fill="#1A1A1A"/>
</svg>
