<svg width="41" height="40" viewBox="0 0 41 40" fill="none" xmlns="http://www.w3.org/2000/svg">
<rect x="0.833008" y="0.5" width="39" height="39" rx="11.5" fill="#FAFAFF"/>
<rect x="0.833008" y="0.5" width="39" height="39" rx="11.5" stroke="#AFAFB3"/>
<path fill-rule="evenodd" clip-rule="evenodd" d="M15.333 16C15.333 13.2377 17.5707 11 20.333 11C23.0953 11 25.333 13.2377 25.333 16V17H27.333C28.833 17 29.333 17.72 29.333 18.6V28.1C29.333 29.2046 28.4376 30.1 27.333 30.1H13.333C12.2284 30.1 11.333 29.2046 11.333 28.1V18.6C11.333 17.72 11.833 17 13.183 17H15.333V16ZM23.333 16V17H17.333V16C17.333 14.3423 18.6753 13 20.333 13C21.9907 13 23.333 14.3423 23.333 16ZM20.333 20C19.2284 20 18.277 20.8968 18.333 22C18.37 22.7298 18.7418 23.3007 19.333 23.5816V25C19.333 25.4142 19.5102 26.5 20.333 26.5C21.1558 26.5 21.333 25.4142 21.333 25V23.5816C21.9242 23.3007 22.296 22.7298 22.333 22C22.389 20.8968 21.4376 20 20.333 20Z" fill="#1A1A1A"/>
</svg>
