<svg width="40" height="40" viewBox="0 0 40 40" fill="none" xmlns="http://www.w3.org/2000/svg">
<rect x="0.5" y="0.5" width="39" height="39" rx="11.5" fill="#FAFAFF"/>
<rect x="0.5" y="0.5" width="39" height="39" rx="11.5" stroke="#AFAFB3"/>
<g clip-path="url(#clip0_4_4074)">
<mask id="mask0_4_4074" style="mask-type:luminance" maskUnits="userSpaceOnUse" x="8" y="8" width="24" height="24">
<path d="M32 8H8V32H32V8Z" fill="white"/>
</mask>
<g mask="url(#mask0_4_4074)">
<path d="M25.9102 10.5525C25.9102 10.3025 25.7402 10.0845 25.4979 10.0239L25.1996 9.94924C24.9007 9.87442 24.6278 9.71973 24.41 9.50168C24.1921 9.28364 24.0376 9.01044 23.9629 8.71129L23.8883 8.41295C23.8277 8.17026 23.6099 8 23.36 8C23.1103 8 22.8926 8.16995 22.8318 8.41236L22.7567 8.71129C22.6821 9.01033 22.5277 9.28346 22.31 9.50149C22.0923 9.71953 21.8196 9.87429 21.5209 9.94924L21.2226 10.0239C20.9803 10.0845 20.8103 10.3025 20.8103 10.5525C20.8103 10.8025 20.9803 11.0204 21.2226 11.0811L21.5209 11.1557C21.8197 11.2305 22.0927 11.3852 22.3105 11.6033C22.5283 11.8213 22.6829 12.0945 22.7576 12.3937L22.8322 12.6922C22.8927 12.9348 23.1105 13.1049 23.3602 13.1049C23.61 13.1049 23.8277 12.9348 23.8883 12.6922L23.9629 12.3937C24.0376 12.0945 24.1921 11.8213 24.41 11.6033C24.6278 11.3852 24.9007 11.2305 25.1996 11.1557L25.4979 11.0811C25.7402 11.0204 25.9102 10.8025 25.9102 10.5525Z" fill="#1A1A1A"/>
<path d="M32 15.5C32 15.1572 31.7667 14.8583 31.4341 14.7752L31.0247 14.6728C30.6145 14.5703 30.2399 14.3581 29.9409 14.0591C29.6419 13.7602 29.4298 13.3855 29.3272 12.9753L29.2248 12.5659C29.1417 12.2333 28.8428 12 28.5 12C28.1572 12 27.8584 12.2333 27.7752 12.5659L27.6728 12.9753C27.5703 13.3855 27.3581 13.7602 27.0591 14.0591C26.7602 14.3581 26.3855 14.5703 25.9753 14.6728L25.5659 14.7752C25.2333 14.8583 25 15.1572 25 15.5C25 15.8428 25.2333 16.1417 25.5659 16.2248L25.9753 16.3272C26.3855 16.4298 26.7602 16.6419 27.0591 16.9409C27.3581 17.2399 27.5703 17.6145 27.6728 18.0247L27.7752 18.4341C27.8584 18.7667 28.1572 19 28.5 19C28.8428 19 29.1417 18.7667 29.2248 18.4341L29.3272 18.0247C29.4298 17.6145 29.6419 17.2399 29.9409 16.9409C30.2399 16.6419 30.6145 16.4298 31.0247 16.3272L31.4341 16.2248C31.7667 16.1417 32 15.8428 32 15.5Z" fill="#1A1A1A"/>
<path d="M17.7135 12.5138C17.9838 11.8287 19.017 11.8287 19.2873 12.5138L21.2371 17.6693C21.322 17.8847 21.5031 18.6172 21.7328 18.6969L26.4521 20.7758C27.1826 21.0293 27.1826 21.9982 26.4521 22.2517L21.7328 23.8346C21.5031 23.9143 21.322 24.6468 21.2371 24.8622L19.2873 29.4862C19.017 30.1713 17.9838 30.1713 17.7135 29.4862L15.7637 24.8622C15.6788 24.6468 15.4977 23.9143 15.268 23.8346L10.5479 22.2517C9.81737 21.9982 9.81737 21.0293 10.5479 20.7758L15.268 18.6969C15.4977 18.6172 15.6788 17.8847 15.7637 17.6693L17.7135 12.5138Z" fill="#1A1A1A"/>
</g>
</g>
<defs>
<clipPath id="clip0_4_4074">
<rect width="24" height="24" fill="white" transform="translate(8 8)"/>
</clipPath>
</defs>
</svg>
