<svg width="41" height="40" viewBox="0 0 41 40" fill="none" xmlns="http://www.w3.org/2000/svg">
<rect x="1.16675" y="0.5" width="39" height="39" rx="11.5" fill="#FAFAFF"/>
<rect x="1.16675" y="0.5" width="39" height="39" rx="11.5" stroke="#AFAFB3"/>
<path d="M24.8889 11.5C24.0696 11.5 23.2615 11.692 22.5286 12.0609C21.7958 12.4297 21.1583 12.9652 20.6667 13.625C20.0021 12.733 19.0755 12.0741 18.0182 11.7417C16.9609 11.4092 15.8264 11.42 14.7755 11.7726C13.7247 12.1252 12.8107 12.8017 12.163 13.7062C11.5153 14.6107 11.1667 15.6975 11.1667 16.8125C11.1667 23.1786 19.9542 28.1989 20.3236 28.4114C20.4283 28.4706 20.5466 28.5011 20.6667 28.4999C20.7869 28.502 20.9054 28.4714 21.0098 28.4114C22.628 27.4591 24.1458 26.3436 25.5398 25.0822C28.6098 22.302 30.1667 19.5218 30.1667 16.8125C30.1667 15.4035 29.6107 14.0523 28.6209 13.056C27.6311 12.0597 26.2887 11.5 24.8889 11.5Z" fill="#1A1A1A"/>
</svg>
